<svg width="1105" height="386" viewBox="0 0 1105 386" fill="none" xmlns="http://www.w3.org/2000/svg">
<path fill-rule="evenodd" clip-rule="evenodd" d="M990 370L989 371V375L991 377H993L996 374V372L994 370H990ZM784 370L783 371V375L784 376H785L786 377H787L788 376H789L790 375V372L788 370H784ZM598 370L596 372V374L599 377H600L601 376H602L603 375V371L602 370H598ZM968 355L967 356H966L965 357H964L963 358V359L961 361V364L960 365V366L961 367V370L962 371V372L965 375H966L967 376H968L969 377H973L974 376H976L977 375H978L979 374V372L978 371H975L974 372H970L969 371H968L967 370V368L968 367H979L981 365V363L980 362V360L976 356H975L974 355H968ZM969 360H973L975 362L973 364H968L967 363V362L969 360ZM935 355L933 357V358L934 359V361L935 362V363L936 364V365L937 366V368L938 369V370L939 371V372L940 373V374L942 376H946L947 375V374L948 373V371L949 370V369L950 368V367L951 366V364L952 363V362L953 361V360L954 359V357L952 355H950L949 356V357L948 358V359L947 360V362L946 363V365L944 367H943L942 366V365L941 364V362L940 361V359L939 358V357L937 355H935ZM921 355L919 357V375L920 376H924L925 375V357L923 355H921ZM907 355L905 357V359L904 360V361L903 362V363L902 364V366L901 367H900L899 366V365L898 364V363L897 362V360L896 359V358L894 356H890V359L891 360V362L892 363V364L893 365V366L894 367V369L895 370V371L896 372V373L897 374V375L898 376H902L904 374V373L905 372V371L906 370V368L907 367V366L908 365V364L909 363V361L910 360V359L911 358V357L909 355H907ZM869 355L868 356V375L869 376H872L873 375V371L874 370V363L877 360H879L880 361H881L882 360V359L883 358V357L881 355H876L875 356H873L872 355H869ZM840 355L838 357V364L839 365V372L840 373V374L841 375H842L843 376H844L845 377H849L850 376H857L858 375V357L856 355H855L853 357V366L852 367V369L849 372H848L847 371H846L844 369V357L842 355H840ZM819 355L818 356H817L814 359V363L815 364V365L816 366H817L818 367H820L821 368H823L824 369V371L823 372H820L819 371H818L817 370H815L814 371V374L816 376H818L819 377H824L825 376H826L827 375H828L829 374V373L830 372V368L829 367V366L828 365H827L826 364H824L823 363H822L820 361L821 360H825L826 361H828L829 360V357L828 356H826L825 355H819ZM756 355L754 357V375L755 376H758L759 375V364L760 363V362L762 360H765L768 363V375L769 376H772L773 375V359L770 356H769L768 355H763L762 356H759L758 355H756ZM730 355L729 356H728L725 359V360L724 361V363L723 364V367L724 368V370L725 371V372L727 374H728L729 375H730L731 376H736L737 375L739 377L735 381H732L731 380H729L728 379H726L724 381V382L726 384H727L728 385H731L732 386H734L735 385H738L739 384H740L743 381V380L744 379V356L743 355H740L739 356H737L736 355H730ZM732 360H736L739 363V368L737 370H736L735 371H733L732 370H731L729 368V363L732 360ZM711 355L709 357V375L710 376H714L715 375V357L713 355H711ZM689 355L688 356H687L685 358V360L684 361V362L685 363V364L688 367H689L690 368H693L695 370L693 372H690L689 371H688L687 370H686L684 372V374L686 376H688L689 377H694L695 376H697L700 373V367L698 365H697L696 364H694L693 363H692L691 362V360L692 359H693L694 360H695L696 361H698L699 360V357L698 356H696L695 355H689ZM664 355L663 356H662L661 357H660L658 359V360L657 361V370L658 371V372L661 375H662L663 376H664L665 377H669L670 376H672L673 375H674L675 374V372L673 370V369L675 367H676L677 366V364L676 363V360L672 356H671L670 355H664ZM663 368L664 367H666L667 368H671L672 369V370L671 371H670L669 372H666L665 371H664L663 370V368ZM666 359H667L668 360H669L671 362L669 364H664L663 363V362L666 359ZM538 355L536 357V375L537 376H540L541 375V357L539 355H538ZM508 355L506 357V371L507 372V373L510 376H511L512 377H516L517 376H518L519 375H520L521 376H524L525 375V356L524 355H522L520 357V369L518 371H514L511 368V356L510 355H508ZM920 346L919 347V350L921 352H923L925 350V347L924 346H920ZM710 346L709 347V350L711 352H713L715 350V347L714 346H710ZM536 346L535 347V350L537 352H539L541 350V347L540 346H536ZM644 345L642 347V354L640 356L639 355H634L633 356H632L631 357H630L628 359V360L627 361V364L626 365V366L627 367V370L628 371V372L632 376H634L635 377H638L639 376H640L641 375H642L643 376H647L648 375V347L646 345H644ZM636 360H639L642 363V369L640 371H635L633 369V368L632 367V364L636 360ZM582 345L581 346V354L579 356L578 355H572L571 356H570L567 359V360L566 361V362L565 363V369L566 370V371L567 372V373L569 375H570L571 376H572L573 377H577L578 376H579L580 375H581L582 376H585L586 375V346L585 345H582ZM574 360H578L580 362V363L581 364V368L578 371H573L571 369V363L574 360ZM552 345L551 346V375L552 376H555L556 375V346L555 345H552ZM478 345L476 347V375L477 376H481L482 375H483L484 376H485L486 377H489L490 376H492L493 375H494L496 373V372L497 371V369L498 368V363L497 362V361L496 360V359L493 356H491L490 355H485L484 356L482 354V347L480 345H478ZM485 360H489L492 363V368L489 371H485L482 368V363L485 360ZM166 313L165 314H163L162 315H161L160 316H159L158 317H157L151 323V324L149 326V327L147 329V331L146 332V333L145 334V335L144 336V339L146 341H147L154 334H155L157 336L155 338H154L151 341L152 342H155L156 343H185L186 342H191L192 341H193L194 340V334L193 333V332L192 331V330L191 329V328L190 327V326L189 325V324L187 322V321L185 319H184L182 317H181L180 316H179L178 315H177L176 314H175L174 313H166ZM181 332L182 331L185 334L183 336L181 334V332ZM260 312L259 313H257L256 314H255L254 315H253L252 316H251L248 319L249 320H251L252 321H255L256 322H269L270 321H274L275 320H277V318L276 317H275L274 316H273L272 315H270L269 314H268L267 313H266L265 312H260ZM208 312L207 313H205L204 314H202L201 315H199L198 316H197L194 319V320L195 321V322L197 324V325L200 328V329L201 330V331L202 332V333L203 334V335L205 337H207L208 338H219L220 337H225L226 336H228L230 334V329L229 328V327L228 326V325L227 324V322L225 320V319L219 313H216L215 312H208ZM218 324L219 323H221L224 326V327L222 329H221L218 326V324ZM76 312L75 313H74L73 314H72L71 315H70L69 316H68L67 317H66L65 318H64V320H66L67 321H71L72 322H84L85 321H89L90 320H91L92 319V318L91 317H90L89 316H88L87 315H86L85 314H84L83 313H82L81 312H76ZM127 311L126 312H123L122 313H121L120 314H119L114 319V320L113 321V322L112 323V325L111 326V329L110 330V332L109 333V334L111 336H116L117 337H120L121 338H129L130 337H134L135 336V334L137 332V331L138 330V329L140 327V326L142 324V323L145 320V318L143 316H142L141 315H140L139 314H137L136 313H133L132 312H130L129 311H127ZM118 324H119L120 325V326L118 328H117L116 327V326L118 324ZM977 288L974 291V292L973 293V294L974 295V296L975 297V298L976 299H977L978 300H991L992 299H1009L1010 298H1023L1024 297H1033L1034 296H1045L1046 295H1051L1052 294H1053V293H1049L1048 292H1040L1039 291H1031L1030 290H1018L1017 289H1003L1002 288H977ZM493 287L492 288H470L469 289H457L456 290H445L444 291H435L434 292H425L424 293H420V295H429L430 296H439L440 297H451L452 298H463L464 299H486L487 300H495L496 299H497L500 296V292L499 291V290L497 288H495L494 287H493ZM277 279L276 280H275L274 281H273L272 282H271L267 286V288L265 290H263L262 291H260L259 292H256L255 293H247L246 294H240L239 295H231L230 296H222V297H223L224 298H236L237 299H248L249 300H265L266 301H275L276 302H288L289 301H291L292 300L288 296V295L289 294H294L295 293H304L305 292H308L309 291H312L313 290H317L318 289H321L322 288H324L325 287L324 286H319L318 285H312L311 284H305L304 283H293L292 282H290L289 281H288L287 280H284L283 279H277ZM56 279L55 280H52L51 281H50L49 282H47L46 283H35L34 284H27L26 285H19L18 286H15V288H17L18 289H21L22 290H25L26 291H29L30 292H33L34 293H48L49 294H51L52 295L49 298H48L47 299V300L48 301H50L51 302H65L66 301H81L82 300H95L96 299H104L105 298H112L113 297H117V296H107L106 295H99L98 294H92L91 293H87L86 292H81L80 291H77L74 288V287L71 284H70L68 282H67L66 281H65L64 280H63L62 279H56ZM836 272L835 273V274L834 275V311L837 314H843L845 312V274L843 272H836ZM761 272L759 274V312L761 314H777L778 313H783L784 312H785L786 311H787L789 309H790L792 307V306L794 304V303L795 302V301L796 300V297L797 296V290L796 289V286L795 285V283L793 281V280L789 276H788L786 274H785L784 273H782L781 272H761ZM770 282L771 281H777L778 282H780L781 283H782L784 285V286L786 288V297L785 298V299L781 303H780L779 304H771L770 303V282ZM685 272L683 274V300L684 301V304L685 305V306L691 312H692L693 313H695L696 314H707L708 313H710L711 312H712L718 306V304L719 303V301L720 300V274L718 272H711L709 274V300L705 304H704L703 305H700L699 304H698L694 300V275L693 274V273L692 272H685ZM614 272L613 273V274L612 275V278L613 279V280L614 281H623L624 282V311L627 314H633L635 312V283L637 281H645L647 279V275L646 274V273L645 272H614ZM901 271L900 272H897L896 273H895L894 274H893L886 281V282L885 283V284L884 285V287L883 288V298L884 299V301L885 302V303L887 305V306L892 311H893L894 312H895L896 313H897L898 314H911L912 313H914L915 312H916L918 310H919L922 307V306L924 304V303L925 302V301L926 300V297L927 296V290L926 289V286L925 285V283L924 282V281L918 275H917L916 274H915L914 273H913L912 272H909L908 271H901ZM901 282L902 281H908L909 282H910L911 283H912L914 285V286L915 287V288L916 289V296L915 297V299L911 303H910L909 304H907L906 305H903L902 304H901L900 303H899L895 299V298L894 297V289L895 288V287L896 286V285L898 283H899L900 282H901ZM560 271L559 272H557L556 273H555L554 274H553L550 277V278L549 279V282L548 283V286L549 287V289L551 291V292L552 293H553L555 295H557L558 296H560L561 297H562L563 298H565L568 301V303L566 305H560L559 304H557L555 302H554L553 301H552L551 302H550L548 304V309L550 311H551L552 312H553L554 313H555L556 314H569L570 313H572L574 311H575L576 310V309L578 307V305L579 304V299L578 298V296L572 290H570L569 289H567L566 288H564L563 287H561L559 285V283L561 281H567L568 282H569L570 283H574L576 281V280L577 279V276L575 274H574L573 273H572L571 272H568L567 271H560ZM147 241L146 242V245L147 246H148L149 245V242L148 241H147ZM169 211L168 212H167L162 217V218L160 220V221L159 222V223L158 224V227L157 228V236L158 237V240L159 241V254L158 255V256L157 257V258L156 259V260L155 261V262L152 265V266L148 270H147L146 269V261L145 260V259L144 258V257L143 256H142V261L141 262V264L140 265V266L139 267V268L138 269V270L137 271V272L136 273V274L135 275V276L134 277V280L133 281V285L132 286V290L133 291V296L134 297V299L135 300V301L136 302V303L139 306H141L142 307H143L144 308H145L146 309H147L148 310H149L151 312H152L154 310H155L156 309V308L155 307V306L154 305V304L153 303V301L152 300V293L153 292V290L154 289V288L156 286H157L158 287V288H159V287L160 286V284L161 283V282L163 280V279L166 276V275L168 273V272L169 271V269L170 268V263L172 261L175 264V265L176 266V267L177 268V270L178 271V281L177 282V288L178 289V290L179 291H180L181 290V289L182 288H184L185 289V290L186 291V292L187 293V296L188 297V300L187 301V303L186 304V306L184 308V309L185 310H186L188 312H189L191 310H192L194 308H195L196 307H197L198 306H201L204 303V302L205 301V300L206 299V297L207 296V283L206 282V279L205 278V277L204 276V275L202 273L201 274V275L200 276V277L197 280H194L193 279V273L194 272V269L195 268V257L194 256V253L193 252V251L192 250V248L191 247V246L190 245V244L188 242V241L187 240H186V246L185 247H184L182 245V244L180 242V241L177 238V237L175 235V234L172 231V230L171 229V228L170 227V226L169 225V222L168 221V218L169 217V213L170 212V211H169ZM170 181L168 183V184L167 185V186L164 189V199L165 200L168 197H171L172 198H173L175 200H176V190L175 189V188L172 185V184L171 183V182L170 181ZM325 174L321 178V192L320 193V199L319 200V205L318 206V209L317 210V213L316 214V217L315 218V220L314 221V223L313 224V226L312 227V228L311 229V231L310 232V234L309 235V236L308 237V239L307 240V241L306 242V243L305 244V245L304 246V247L303 248V249L302 250V251L307 256V257L311 261V262L312 263H314V262L316 260V259L317 258V257L318 256V255L319 254V253L320 252V251L321 250V249L322 248V247L323 246V245L324 244V243L325 242V239L324 238V237L322 235V232L320 230L322 228L326 232H328L329 231V230L330 229V227L331 226V224L332 223V220L333 219V216L334 215V212L335 211V208L336 207V202L337 201V196L338 195V183L339 182V178L338 177H337L336 176H335L334 177H333L332 178H331L327 174H325ZM11 144L10 145H9L8 146H7L6 147H5L4 148H3L1 150V158L0 159V189L1 190V197L2 198V204L3 205V208L4 209V212L5 213V217L6 218V221L7 222V224L8 225V227L9 228V229L10 230H12L13 229H14L15 228L17 230V233L15 235V236L13 238V241L14 242V243L15 244V245L16 246V247L17 248V249L18 250V251L19 252V253L20 254V255L22 257V258L23 259V260L24 261V262L26 264L29 261V260L33 256V255L37 251V250L36 249V248L35 247V246L34 245V244L33 243V242L32 241V239L31 238V237L30 236V235L29 234V232L28 231V230L27 229V227L26 226V224L25 223V221L24 220V218L23 217V214L22 213V210L21 209V205L20 204V201L19 200V194L18 193V182L17 181V176L16 175V174L17 173V166L18 165V156L19 155V150L13 144H11ZM589 128L588 129H586L583 132V133L582 134V136L581 137V165L582 166V169L586 173H591L592 174H605L606 173H628L632 169V168L633 167V157L634 156V147L633 146V134L632 133V132L629 129H627L626 128H589ZM268 108V109L267 110V113L266 114V116L265 117V120L264 121V123L263 124V125L262 126V127L261 128V129L260 130V131L257 134V135L256 136V137L257 138H260L261 137H262L263 138V140L262 141V142L261 143V144L259 146V147L257 149V150L249 158V160H250L251 161H259L260 160H261L262 161V162L261 163V164L254 171V172L248 178H247L245 180V182L247 184H248L251 187H261L262 188V189L261 190V191L259 193H258L257 194V196L261 200V201L265 205V206L270 211V212L275 217H277L278 216H279L282 219V220L283 221V226L284 227V228L286 230V231L288 233L289 232V229L288 228V225L287 224V221L288 220H289L290 221H298L299 220H301L302 219H303V218L302 217H301L298 214H297L294 211V209L295 208H296L297 207V206H296L295 205H294L292 203H291L287 199V198L283 194H279L278 193V192L277 191V190L276 189V188L277 187H279L280 188H294L296 186L283 173V172L280 169V168L275 163V161L276 160H278L279 161H286L287 160H288V159L282 153V152L279 149V148L277 146V145L276 144V143L275 142V141L274 140V138L275 137H276L277 138H280L281 137V136L278 133V132L276 130V129L275 128V127L274 126V124L273 123V121L272 120V119L271 118V115L270 114V111L269 110V108H268ZM70 108V110L69 111V114L68 115V118L67 119V121L66 122V124L65 125V126L64 127V128L63 129V130L61 132V133L58 136V137L59 138H64L65 139V141L64 142V143L63 144V145L61 147V148L58 151V152L51 159V160H52L53 161H61L62 160H63L64 161V163L60 167V168L57 171V172L44 185H43L42 186L43 187H44L45 188H59L60 187H61L62 186L64 188L63 189V190L62 191V192L59 195H58L57 194H56L54 196V197L51 200H50L48 202H47L46 203H45L43 205H42L41 206L42 207H43L45 209V210L39 216H38L36 218V220H38L39 221H49L50 220H51L52 219L54 221L53 222V223L52 224V225L51 226V228L50 229V232L49 233V234H50L54 230V229L55 228V222L61 216H62L63 217V218H64L68 214V213L73 208V207L76 204V203L81 198V197L83 195V194L81 192H80L78 190V189L77 188V187L78 186H80L81 187H83L84 188H87L88 187H89L95 181L92 178H91L86 173V172L83 169V168L81 166H80L77 163V161L78 160H79L80 161H88L89 160H90L91 159L82 150V149L80 147V146L78 144V143L77 142V141L76 140V138L77 137H78L79 138H81L82 137H83V136L81 134V133L79 131V130L77 128V127L76 126V124L75 123V121L74 120V118L73 117V115L72 114V111L71 110V108H70ZM183 91L182 92V93L179 96V97L177 99V100L174 103V104L173 105V106L175 108V109L178 112V113L183 118H185V117L188 114V113L191 110V109L193 107V106L197 102V99L192 94H191L189 92H188L187 91H183ZM152 91L151 92H150L148 94H147L142 99V101L144 103V104L147 107V108L151 112V113L154 116V117L157 120V121L159 123V124L160 125V128L159 129V130L158 131V132L156 134V135L155 136V137L154 138V139L152 141V142L151 143V144L150 145V146L148 148L147 147V144L148 143V142L149 141V139L150 138V137L151 136V134L152 133V132L153 131V130H152L148 134V135L143 140V141L137 147V148L132 153V154L127 159V160L122 165V166L117 171V172L113 176V177L109 181V182L105 186V187L102 190V192L104 194V196L103 197H101L100 198H99L98 199H95L91 203V204L86 209V210L81 215V216L78 219V220L74 224V225L70 229V230L67 233V234L63 238V239L59 243V244L55 248V249L51 253V254L48 257V258L45 261V262L44 263V264L46 262H47L48 261H49L50 262V263L47 266H46V267H47L48 268H55L56 267H58L66 259V258L73 251L74 252V253L73 254V255L71 257V258L70 259V260L68 262V263L66 265V266L65 267V268L66 269H68L69 270H70L71 271H72L73 272H74L75 273H76L78 275H79L81 277H82L85 280H86L87 279V278L88 277V276L90 274V273L91 272V271L93 269V268L94 267V266L96 264V263L97 262V261L99 259V258L100 257V256L102 254V253L103 252V251L105 249V248L106 247V246L108 244V243L110 241V240L111 239V238L112 237V236L113 235V234L115 232V231L116 230V229L118 227V226L119 225V224L120 223V222L122 220V219L123 218V217L125 215V214L126 213V212L128 210V209L129 208V207L130 206V205L131 204V203L133 201L134 202V204L133 205V207L132 208V209L131 210V211L130 212V213L129 214V215L128 216V217L127 218V219L126 220V221L125 222V223L123 225V226L122 227V228L121 229V230L120 231V233L119 234V235L118 236V237L116 239V240L115 241V242L114 243V244L113 245V246L112 247V248L111 249V250L110 251V252L109 253V254L108 255V256L107 257V258L106 259V260L105 261V262L104 263V264L103 265V266L102 267V268L101 269V270L100 271V272L99 273V274L98 275V276L97 277V278L96 279L97 280H108L110 278V277L111 276V275L112 274V272L113 271V270L114 269V268L115 267V265L116 264V263L117 262V261L118 260V259L119 258V257L120 256V254L121 253V252L122 251V249L123 248V247L124 246V245L125 244V243L126 242V241L127 240V238L128 237V236L129 235V234L130 233V232L131 231V229L132 228V227L133 226V225L134 224V223L135 222V221L136 220V218L137 217V216L138 215V214L139 213V212L140 211V210L141 209V208L142 207V205L143 204V203L144 202V201L145 200V199L146 198V196L147 195V194L148 193V192L149 191V190L150 189V187L151 186V185L152 184V183L153 182V181L154 180V179L155 178V176L156 175V174L157 173V172L158 171V169L159 168V167L160 166V165L161 164V162L162 161V160L163 159V158L164 157V156L165 155V153L166 152V151L167 150V149L168 148V147L169 146H170L172 148V149L173 150V152L174 153V154L175 155V156L176 157V159L177 160V161L178 162V163L179 164V165L180 166V168L181 169V170L182 171V172L183 173V175L184 176V177L185 178V179L186 180V181L187 182V183L188 184V185L189 186V188L190 189V190L191 191V192L192 193V195L193 196V197L194 198V199L195 200V201L196 202V204L197 205V206L198 207V208L199 209V210L200 211V213L201 214V215L202 216V217L203 218V220L204 221V222L205 223V224L206 225V226L207 227V228L208 229V231L209 232V233L210 234V235L211 236V237L212 238V239L213 240V242L214 243V244L215 245V246L216 247V248L217 249V251L218 252V253L219 254V255L220 256V257L221 258V259L222 260V261L223 262V264L224 265V266L225 267V268L226 269V271L227 272V273L228 274V276L229 277V278L231 280H242L243 279L242 278V277L241 276V275L240 274V273L239 272V271L238 270V269L237 268V267L236 266V265L235 264V263L234 262V261L233 260V259L232 258V257L231 256V255L230 254V253L229 252V251L228 250V249L227 248V247L226 246V245L225 244V243L224 242V241L223 240V239L222 238V237L221 236V235L220 234V233L219 232V231L218 230V229L217 228V227L216 226V225L215 224V223L214 222V221L213 220V219L212 218V217L211 216V215L210 214V213L209 212V210L210 209L212 211V212L213 213V214L215 216V217L216 218V219L217 220V221L219 223V224L220 225V226L222 228V229L223 230V231L225 233V234L226 235V236L227 237V238L229 240V241L231 243V244L232 245V246L234 248V249L235 250V251L237 253V254L239 256V257L240 258V259L241 260V261L243 263V264L245 266V267L247 269V270L248 271V272L250 274V275L251 276V277L254 280L256 278H257L259 276H260L262 274H263L265 272H266L267 271H268L269 270H270L271 269H273V266L271 264V263L268 260V259L267 258V257L265 255V254L264 253V252L263 251V250L264 249L270 255V256L278 264V265L281 268H285L286 267H297L298 266L296 264V263L292 259V258L289 255V254L285 250V249L281 245V244L276 239V238L273 235V234L270 231V230L266 226V225L262 221V220L258 216V215L254 211V210L250 206V205L246 201V200L241 195V194L237 190V189L232 184V183L228 179V178L223 173V172L219 168V167L214 162V161L208 155H206L204 157V158L203 159V162L202 163L200 161H199L197 159V156L198 155V154L199 153V151L200 150V146L199 145V144L196 141V140L193 137V136L187 130H186V132L185 133L183 131V130L182 129V128L181 127V126L180 125V124L179 123V122L177 120V119L174 116V115L171 112V111L168 108V107L165 104V103L162 100V99L159 96V95L157 93V92L156 91H152ZM81 240L82 239H84L85 240L83 242H82L81 241V240ZM168 126L169 125H170L171 126V128L170 129H169L168 128V126ZM979 41L978 42H976L975 43H974L973 44V45L971 47V49L970 50V57L969 58V130L970 131V153L971 154V168L970 169V241L971 242V243L972 244V245L973 246H974L976 248H979L980 249H991L992 250H1006L1007 251H1022L1023 250H1025L1027 248V247L1028 246V244L1029 243V229L1028 228V196L1026 194V192L1024 190L1027 187V184L1028 183V179L1030 177H1031L1032 176H1033L1034 177H1043L1046 180V220L1045 221V247L1046 248V250L1049 253H1051L1052 254H1056L1057 255H1065L1066 256H1076L1077 257H1086L1087 258H1092L1093 257H1097L1098 256H1099L1102 253V252L1103 251V249L1104 248V224L1105 223V111L1104 110V97L1105 96V70L1104 69V54L1103 53V51L1102 50V49L1098 45H1097L1096 44H1094L1093 43H1084L1083 42H1052L1051 43H1049L1045 47V49L1044 50V60L1045 61V94L1046 95V114L1043 117H1031L1029 115V114L1028 113V87L1029 86V48L1028 47V46L1025 43H1023L1022 42H1016L1015 41H979ZM1080 246H1081L1082 247V248L1080 250H1079L1078 249V248L1080 246ZM884 39L883 40H873L872 41H867L866 42H864L863 43H862L861 44H860L859 45H858L857 46H856L849 53V54L847 56V57L846 58V59L845 60V61L844 62V64L843 65V67L842 68V71L841 72V76L840 77V81L839 82V88L838 89V95L837 96V103L836 104V110L835 111V118L834 119V125L833 126V132L832 133V139L831 140V145L830 146V152L829 153V160L828 161V166L827 167V174L826 175V180L825 181V188L824 189V194L823 195V201L822 202V209L821 210V218L820 219V226L819 227V229L820 230V234L821 235V236L822 237V238L823 239H824L825 240H826L827 241H831L832 242H855L856 243H865L866 242H870L871 241H872L874 239V238L875 237V236L876 235V227L877 226V216L878 215V212L880 210H882L883 209H886L887 210H899L900 211H901L903 213V216L904 217V229L905 230V237L906 238V240L909 243H910L911 244H912L913 245H923L924 246H946L947 247L948 246H954L955 245H956L960 241V240L961 239V235L962 234V232L961 231V221L960 220V212L959 211V204L958 203V196L957 195V188L956 187V181L955 180V173L954 172V167L953 166V159L952 158V151L951 150V143L950 142V135L949 134V126L948 125V118L947 117V112L946 111V103L945 102V96L944 95V89L943 88V82L942 81V76L941 75V71L940 70V67L939 66V64L938 63V61L937 60V59L936 58V57L935 56V55L932 52V51L928 47H927L925 45H924L923 44H922L921 43H919L918 42H916L915 41H910L909 40H898L897 39H884ZM890 111H892L894 113V119L895 120V126L896 127V133L897 134V141L898 142V148L899 149V157L896 160H885L883 158V157L882 156V153L883 152V146L884 145V139L885 138V133L886 132V125L887 124V117L888 116V113L890 111ZM665 39L664 40H657L656 41H654L653 42H652L646 48V49L645 50V53L644 54V59L643 60V208L642 209V228L643 229V233L644 234V236L648 240H649L650 241H654L655 242H669L670 241H692L693 240H695L699 236V235L700 234V203L699 202V169L701 167H702L704 169V170L705 171V173L706 174V176L707 177V180L708 181V183L709 184V187L710 188V190L711 191V193L712 194V197L713 198V200L714 201V203L715 204V206L716 207V208L718 210H720L721 211H734L735 210H736L739 207V206L740 205V203L741 202V199L742 198V196L743 195V192L744 191V189L745 188V186L746 185V182L747 181V179L748 178V175L749 174V172L750 171V169L752 167H753L756 170V180L755 181V211L754 212V233L755 234V236L758 239H759L760 240H765L766 241H802L803 240H805L806 239H807L810 236V235L811 234V232L812 231V110L811 109V89L810 88V84L809 83V80L810 79V78L811 77V55L810 54V51L809 50V49L807 47V46L804 43H803L802 42H801L800 41H797L796 40H788L787 39H760L759 40H753L752 41H751L750 42H749L748 43H747L744 46V47L742 49V51L741 52V53L740 54V56L739 57V59L738 60V62L737 63V65L736 66V68L735 69V70L734 71V73L733 74V76L732 77V79L731 80V82L730 83V84L728 86H726L725 85V83L724 82V81L723 80V78L722 77V75L721 74V72L720 71V69L719 68V66L718 65V64L717 63V60L716 59V58L715 57V55L714 54V53L713 52V50L712 49V48L710 46V45L709 44H708L706 42H705L704 41H701L700 40H694L693 39H665ZM526 39L525 40H519L518 41H516L515 42H514L511 45V46L509 48V50L508 51V144L509 145V160L510 161V166L509 167V213L508 214V236L509 237V240L510 241V242L514 246H515L516 247H537L538 246H559L560 245H565L566 244H567L571 240V239L572 238V234L573 233V212L572 211V82L573 81V59L572 58V51L571 50V49L570 48V47L569 46V45L568 44H567L565 42H564L563 41H561L560 40H553L552 39H526ZM423 39L422 40H392L391 41H376L375 42H373L369 46V47L368 48V50L367 51V62L366 63V78L367 79V95L368 96V98L369 99V100L370 101V102L372 104H373L374 105H377L378 106H381L382 105H400L404 109V116L403 117V141L402 142V168L401 169V207L402 208V210L403 211V213L402 214V215L400 217V222L399 223V247L400 248V250L404 254H405L406 255H423L424 254H431L435 250H437L438 251V252L439 253H446L447 252H457L458 251H463L464 250H465L469 246V245L470 244V221L469 220V202L468 201V173L467 172V151L466 150V131L465 130V111L464 110V108L465 107V106L467 104H468L469 103H491L492 102H493L494 101H495L496 100V99L497 98V97L498 96V94L499 93V75L500 74V73L499 72V49L498 48V47L497 46V45L495 43H494L493 42H492L491 41H477L476 40H446L445 39H423ZM169 32V34L168 35V38L167 39V42L166 43V45L165 46V48L161 52H160L159 53H158L157 54H155L154 55H151L150 56H148L147 57H146V58H150L151 59H154L155 60H158L159 61H160L161 62H162L164 64V65L165 66V67L166 68V70L167 71V74L168 75V78L169 79V81H170V80L171 79V76L172 75V73L173 72V69L174 68V66L179 61H181L182 60H184L185 59H187L188 58H193V56H189L188 55H186L185 54H182L181 53H180L179 52H178L175 49V48L174 47V46L173 45V42L172 41V38L171 37V34L170 33V32H169ZM178 0L177 1V13L178 14V16L180 18H186L187 19H193L194 20H198L199 21H203L204 22H207L208 23H210L211 24H213L214 25H216L217 26H219L220 27H222L223 28H224L225 29H226L227 30H229L230 31H231L232 32H233L234 33H235L236 34H237L238 35H239L240 36H241L243 38H244L245 39H246L248 41H249L250 42H251L253 44H254L255 45H256L258 43H259L260 42H261L262 43V47L261 48V50L262 51H263L269 57H270L281 68V69L282 70H284L286 68H287L289 70V78L290 79V80L293 83V84L295 86V87L296 88V89L298 91V92L299 93V94L301 96V97L302 98V99L303 100V101L304 102V103L305 104V105L306 106V107L307 108V109L308 110V111L309 112V114L310 115V116L311 117V119L312 120V122L313 123V125L314 126V128L315 129V131L316 132V133L317 134V137L318 138V144L319 145V149L320 150V155L321 156V164L322 165H323L324 166H326L327 167H328L330 169H332L333 168H334L336 166H337L338 165V157L337 156V149L336 148V143L335 142V137L334 136V133L333 132V130L332 129V127L330 125V124L328 122V114L327 113V112L326 111V110L324 108V105L323 104V102L322 101V100L317 95V91L316 90V89L315 88V87L314 86V85L313 84V83L311 81V80L306 75V74L305 73V72L304 71V70L302 68V67L298 63H296L292 67H290L289 66V63L290 62V61L291 60V58L292 57V56L290 54V53L283 46H282L280 44H277L276 45H272L270 43V41L271 40V36L270 35H269L266 32H265L263 30H262L259 27H258L257 26H256L254 24H253L252 23H251L249 21H248L247 20H246L245 19H244L243 18H242L241 17H240L239 16H238L237 15H236L235 14H234L233 13H231L230 12H229L228 11H226L225 10H224L223 9H221L220 8H218L217 7H214L213 6H211L210 5H207L206 4H203L202 3H199L198 2H193L192 1H187L186 0H178ZM156 0L155 1H148L147 2H142L141 3H138L137 4H134L133 5H129L128 6H125L122 9V10L121 11V12L120 13H118L115 10H114L113 11H110L109 12H108L107 13H105L104 14H103L102 15H101L100 16H99L94 21H89L87 23H86L85 24H84L82 26H81L80 27H79L76 30H75L73 32H72L70 34H69L65 38H64L62 40V42L63 43V44L61 46H59L58 45H57L56 46H55L48 53V54L50 56V59L48 61H47L46 60H43L36 67V68L34 70V71L31 74V75L29 77V78L27 80V81L26 82V83L24 85V86L23 87V88L22 89V90L21 91V92L20 93V94L19 95V96L18 97V98L17 99V100L16 101V102L15 103V105L17 107V109L14 112H13L10 115V117L9 118V119L8 120V123L7 124V126L6 127V130L5 131V133L4 134V136L6 138H10L11 137H14L15 136H16L17 137H20L23 134V131L24 130V128L25 127V124L26 123V121L27 120V119L28 118V116L29 115V114L30 113V112L31 111V110L32 109V107L33 106V105L34 104V103L35 102V101L36 100V99L37 98V97L39 95V94L40 93V92L42 90V89L43 88V87L45 85V84L48 81V80L51 77V76L56 71V70L59 67V61L60 60V59L62 57H64L66 59H67L72 54H73L78 49H79L82 46H83L85 44H86L88 42H89L91 40H92L93 39H94L95 38H96L98 36H99L100 35H101L102 34H103L104 33H105L106 32H107L108 31H110L111 30H112L113 29H115L116 28H117L118 27H120L121 26H122L123 25H125L126 24H129L130 23H132L133 22H136L137 21H141L142 20H146L147 19H152L153 18H163L165 16V15L166 14V11L167 10V8L168 7V5L169 4V1L168 0H156Z" fill="white"/>
</svg>
